<svg width="45" height="49" viewBox="0 0 45 49" fill="none" xmlns="http://www.w3.org/2000/svg"><path d="M12.05 45.573c16.449-6.919 17.813-14.091 15.5-17.966s-8.154-3.41-10.507.26c-.088-4.36-4.827-7.808-8.823-5.712s-6.58 8.924 3.83 23.418M36.308 27.95c8.642-6.172 8.494-10.514 6.644-12.46s-5.18-.912-6.066 1.527c-.622-2.519-3.825-3.9-5.87-2.159-2.045 1.74-2.651 6.043 5.292 13.093M25.4 9.846c6.595-1.567 7.553-4.17 6.929-5.766-.625-1.596-2.843-1.786-3.954-.557.239-1.64-1.322-3.227-2.95-2.69s-3.022 2.933-.025 9.013" fill="#FF8197"/></svg>